<svg width="28" height="28" viewBox="0 0 28 28" fill="none" xmlns="http://www.w3.org/2000/svg">
<g clip-path="url(#clip0_2386_420)">
<path d="M20.6172 0.995312C20.4805 1.06641 20.3273 1.19766 20.2781 1.29062C20.2234 1.38359 20.0539 2.0125 19.9008 2.68516C19.5672 4.13984 19.425 4.47891 18.9547 4.95469C18.4789 5.425 18.1398 5.56719 16.6852 5.90078C16.0125 6.05391 15.3836 6.22344 15.2906 6.27812C15.1047 6.38203 14.875 6.78125 14.875 7C14.875 7.21875 15.1047 7.61797 15.2906 7.72187C15.3836 7.77656 16.0125 7.94609 16.6852 8.09922C18.1398 8.43281 18.4789 8.575 18.9547 9.04531C19.425 9.51562 19.5672 9.85469 19.9008 11.3203C20.0539 11.993 20.2234 12.6219 20.2781 12.7148C20.382 12.8953 20.7813 13.125 21 13.125C21.2188 13.125 21.618 12.8953 21.7219 12.7094C21.7766 12.6219 21.9461 11.993 22.0992 11.3148C22.4328 9.86016 22.5695 9.52109 23.0453 9.04531C23.5211 8.575 23.8602 8.43281 25.3148 8.09922C25.9875 7.94609 26.6164 7.77656 26.7094 7.72187C26.8953 7.61797 27.125 7.21875 27.125 7C27.125 6.78125 26.8953 6.38203 26.7094 6.27812C26.6164 6.22344 25.9875 6.05391 25.3148 5.90078C23.8656 5.56719 23.5375 5.43594 23.0563 4.96016C22.575 4.48437 22.4328 4.15625 22.0992 2.68516C21.9461 2.0125 21.7766 1.38359 21.7219 1.29062C21.618 1.10469 21.2188 0.874999 21 0.874999C20.9234 0.874999 20.7484 0.929687 20.6172 0.995312Z" fill="url(#paint0_linear_2386_420)"/>
<path d="M11.0195 5.28281C10.932 5.29375 10.6203 5.33203 10.3359 5.36484C9.67422 5.44141 8.53672 5.73125 7.86953 5.98828C4.15625 7.44844 1.52031 10.7789 0.978906 14.7109C0.885938 15.3781 0.885938 16.9969 0.978906 17.6641C1.12656 18.7414 1.55312 20.125 2.03437 21.0711C2.94766 22.8922 4.44609 24.5 6.20703 25.5664C8.05 26.682 10.4836 27.2562 12.5945 27.0812C14.9898 26.8734 17.068 26.0312 18.8398 24.5437C21.7547 22.0937 23.193 18.2602 22.6078 14.5195C22.5586 14.2187 22.5094 13.9562 22.493 13.9289C22.482 13.907 22.3562 13.9672 22.2195 14.0602C21.3281 14.6727 20.0867 14.5141 19.3594 13.6883C19.0312 13.3109 18.9383 13.0703 18.6266 11.7141C18.3203 10.3961 18.2 10.0844 17.8992 9.86562C17.6586 9.69609 17.5055 9.64687 16.2203 9.35156C14.9242 9.05625 14.6836 8.96875 14.3117 8.64062C13.4859 7.91328 13.3219 6.67187 13.9398 5.775C14.0383 5.63281 14.1094 5.50703 14.0984 5.49609C13.9836 5.38125 11.5281 5.21172 11.0195 5.28281ZM12.2937 10.2102C12.3703 10.2648 12.4852 10.3852 12.5453 10.4672C12.6547 10.6148 12.6602 10.6914 12.6766 12.9664L12.693 15.3125H15.0062H17.3195L17.5055 15.4383C18.0852 15.8266 18.0852 16.5484 17.5055 16.9367L17.3195 17.0625H15.0062H12.6875V19.3812V21.6945L12.5617 21.8805C12.1734 22.4602 11.4516 22.4602 11.0633 21.8805L10.9375 21.6945V19.3812V17.068L8.59141 17.0516C6.31641 17.0352 6.23984 17.0297 6.09219 16.9203C5.80234 16.707 5.71484 16.532 5.71484 16.1875C5.71484 15.843 5.80234 15.668 6.09219 15.4547C6.23984 15.3453 6.31641 15.3398 8.59141 15.3234L10.9375 15.307V13.043C10.9375 11.5719 10.9594 10.7242 10.9977 10.6258C11.0742 10.4234 11.2547 10.232 11.457 10.1391C11.6758 10.0352 12.1078 10.0734 12.2937 10.2102Z" fill="url(#paint1_linear_2386_420)"/>
</g>
<defs>
<linearGradient id="paint0_linear_2386_420" x1="21" y1="13.125" x2="21" y2="0.874999" gradientUnits="userSpaceOnUse">
<stop stop-color="#06E8FD"/>
<stop offset="1" stop-color="#008BE4"/>
</linearGradient>
<linearGradient id="paint1_linear_2386_420" x1="11.8228" y1="27.1122" x2="11.8228" y2="5.26595" gradientUnits="userSpaceOnUse">
<stop stop-color="#06E8FD"/>
<stop offset="1" stop-color="#008BE4"/>
</linearGradient>
<clipPath id="clip0_2386_420">
<rect width="28" height="28" fill="white"/>
</clipPath>
</defs>
</svg>
