<svg width="1789" height="449" viewBox="0 0 1789 449" fill="none" xmlns="http://www.w3.org/2000/svg">
<g clip-path="url(#clip0_2337_9118)">
<rect width="1789" height="449" transform="matrix(-1 0 0 1 1789 0)" fill="black"/>
<path d="M1132.69 155.854C1292.71 103.287 1440.12 63.461 1549.09 41.5646C1603.58 30.6158 1648.44 24.1537 1680.45 22.8189C1696.46 22.1514 1709.23 22.7678 1718.37 24.7333C1727.56 26.7088 1732.89 30.0022 1734.37 34.5097C1735.85 39.0173 1733.51 44.8281 1727.29 51.8673C1721.09 58.8711 1711.18 66.9386 1697.89 75.8955C1671.32 93.8049 1631.37 115.204 1581 138.702C1480.27 185.693 1337.96 241.044 1177.94 293.612C1017.92 346.179 870.508 386.005 761.536 407.902C707.046 418.85 662.186 425.312 630.173 426.647C614.163 427.315 601.396 426.698 592.254 424.733C583.066 422.757 577.739 419.464 576.258 414.956C574.777 410.449 577.114 404.638 583.34 397.599C589.535 390.595 599.45 382.528 612.737 373.571C639.305 355.661 679.258 334.262 729.625 310.764C830.354 263.773 972.667 208.422 1132.69 155.854Z" stroke="white" stroke-opacity="0.16"/>
<path d="M1135.19 141.083C1297 94.3215 1445.75 59.8386 1555.44 41.887C1610.29 32.9106 1655.36 28.0708 1687.4 27.8915C1703.42 27.8019 1716.16 28.8784 1725.22 31.1724C1734.33 33.478 1739.54 36.9614 1740.85 41.5194C1742.17 46.0774 1739.63 51.8002 1733.15 58.6102C1726.71 65.3861 1716.51 73.0907 1702.91 81.5625C1675.71 98.5019 1635.01 118.447 1583.83 140.112C1481.47 183.44 1337.25 233.621 1175.44 280.383C1013.63 327.145 864.876 361.628 755.185 379.579C700.336 388.556 655.272 393.395 623.232 393.575C607.208 393.664 594.471 392.588 585.406 390.294C576.296 387.988 571.091 384.505 569.773 379.947C568.456 375.389 571.001 369.666 577.477 362.856C583.921 356.08 594.12 348.375 607.721 339.904C634.918 322.964 675.617 303.02 726.799 281.354C829.157 238.026 973.373 187.845 1135.19 141.083Z" stroke="white" stroke-opacity="0.16"/>
<path d="M1185.82 120.835C1352.4 145.78 1501.98 176.442 1609.17 205.849C1662.77 220.553 1705.75 234.938 1734.95 248.131C1749.55 254.729 1760.68 261.016 1767.97 266.88C1775.29 272.774 1778.57 278.11 1777.86 282.802C1777.16 287.494 1772.46 291.635 1763.74 295.126C1755.05 298.599 1742.57 301.351 1726.68 303.382C1694.9 307.443 1649.59 308.607 1594.03 306.965C1482.93 303.682 1330.92 289.181 1164.35 264.236C997.771 239.291 848.183 208.629 740.993 179.222C687.395 164.518 644.415 150.133 615.217 136.94C600.614 130.342 589.486 124.054 582.202 118.191C574.882 112.297 571.603 106.961 572.305 102.269C573.008 97.5768 577.706 93.4355 586.432 89.945C595.114 86.472 607.596 83.72 623.491 81.689C655.273 77.6282 700.581 76.4641 756.136 78.1056C867.238 81.3886 1019.25 95.8901 1185.82 120.835Z" stroke="white" stroke-opacity="0.1"/>
<g filter="url(#filter0_f_2337_9118)">
<path d="M953.747 507.475C1313.7 307.594 1677.13 -70.7114 1823.75 -88.0257C2086.25 -119.026 2047.86 598.176 1770.25 854.474C1509.75 1094.97 -298.479 1341.18 145.247 854.474C381.317 595.536 647.411 677.583 953.747 507.475Z" fill="#280075"/>
</g>
<g filter="url(#filter1_f_2337_9118)">
<path d="M780.254 507.475C1140.21 307.594 1503.64 -70.7114 1650.25 -88.0257C1912.76 -119.026 1874.37 598.176 1596.75 854.474C1336.25 1094.97 -471.971 1341.18 -28.2454 854.474C207.825 595.536 473.918 677.583 780.254 507.475Z" fill="#CF00A3"/>
</g>
<g filter="url(#filter2_f_2337_9118)">
<path d="M670.161 1285.6C552.973 1153.69 1175.43 377.43 1584.48 99.8414C1993.54 -177.747 2000.24 534.069 1661.93 875.721C1380.35 1160.09 787.349 1417.52 670.161 1285.6Z" fill="#FF8993"/>
<path d="M670.161 1285.6C552.973 1153.69 1175.43 377.43 1584.48 99.8414C1993.54 -177.747 2000.24 534.069 1661.93 875.721C1380.35 1160.09 787.349 1417.52 670.161 1285.6Z" stroke="#FF1D74" stroke-width="40"/>
</g>
<path opacity="0.5" d="M1700.59 78.994H1690.05C1689.6 78.994 1689.38 78.449 1689.69 78.1312L1694.72 73.1005C1694.92 72.9026 1694.92 72.5828 1694.72 72.3859C1694.52 72.1879 1694.2 72.1879 1694.01 72.3859L1688.98 77.4166C1688.66 77.7354 1688.12 77.5092 1688.12 77.0588V66.506C1688.12 66.2272 1687.89 66 1687.61 66C1687.34 66 1687.11 66.2262 1687.11 66.506V77.0588C1687.11 77.5092 1686.56 77.7344 1686.25 77.4166L1681.22 72.3859C1681.02 72.1879 1680.7 72.1879 1680.51 72.3859C1680.31 72.5838 1680.31 72.9036 1680.51 73.1005L1685.53 78.1312C1685.85 78.45 1685.63 78.994 1685.18 78.994H1674.63C1674.36 78.994 1674.13 79.2202 1674.13 79.5C1674.13 79.7788 1674.35 80.006 1674.63 80.006H1685.18C1685.63 80.006 1685.85 80.551 1685.53 80.8688L1680.51 85.8995C1680.31 86.0974 1680.31 86.4172 1680.51 86.6141C1680.71 86.8121 1681.02 86.8121 1681.22 86.6141L1686.25 81.5835C1686.56 81.2646 1687.11 81.4908 1687.11 81.9412V92.494C1687.11 92.7728 1687.33 93 1687.61 93C1687.89 93 1688.12 92.7738 1688.12 92.494V81.9412C1688.12 81.4908 1688.66 81.2656 1688.98 81.5835L1694.01 86.6141C1694.2 86.8121 1694.52 86.8121 1694.72 86.6141C1694.92 86.4162 1694.92 86.0965 1694.72 85.8995L1689.69 80.8688C1689.38 80.55 1689.6 80.006 1690.05 80.006H1700.59C1700.87 80.006 1701.1 79.7798 1701.1 79.5C1701.1 79.2212 1700.87 78.994 1700.59 78.994Z" fill="white"/>
<path opacity="0.5" d="M1673.64 148.513H1663.49C1663.06 148.513 1662.84 147.988 1663.15 147.682L1667.99 142.838C1668.18 142.647 1668.18 142.339 1667.99 142.149C1667.8 141.959 1667.49 141.959 1667.3 142.149L1662.46 146.994C1662.15 147.301 1661.63 147.083 1661.63 146.649V136.487C1661.63 136.219 1661.41 136 1661.14 136C1660.87 136 1660.66 136.218 1660.66 136.487V146.649C1660.66 147.083 1660.13 147.3 1659.83 146.994L1654.99 142.149C1654.8 141.959 1654.49 141.959 1654.3 142.149C1654.11 142.34 1654.11 142.648 1654.3 142.838L1659.14 147.682C1659.45 147.989 1659.23 148.513 1658.79 148.513H1648.64C1648.38 148.513 1648.16 148.731 1648.16 149C1648.16 149.269 1648.37 149.487 1648.64 149.487H1658.79C1659.23 149.487 1659.44 150.012 1659.14 150.318L1654.3 155.162C1654.11 155.353 1654.11 155.661 1654.3 155.851C1654.49 156.041 1654.8 156.041 1654.99 155.851L1659.83 151.006C1660.13 150.699 1660.66 150.917 1660.66 151.351V161.513C1660.66 161.781 1660.87 162 1661.14 162C1661.41 162 1661.63 161.782 1661.63 161.513V151.351C1661.63 150.917 1662.15 150.7 1662.46 151.006L1667.3 155.851C1667.49 156.041 1667.8 156.041 1667.99 155.851C1668.18 155.66 1668.18 155.352 1667.99 155.162L1663.15 150.318C1662.84 150.011 1663.06 149.487 1663.49 149.487H1673.64C1673.91 149.487 1674.13 149.269 1674.13 149C1674.13 148.731 1673.91 148.513 1673.64 148.513Z" fill="white"/>
<path opacity="0.5" d="M1647.67 26.5127H1637.52C1637.09 26.5127 1636.87 25.9879 1637.18 25.6819L1642.02 20.8375C1642.21 20.6469 1642.21 20.339 1642.02 20.1493C1641.82 19.9588 1641.52 19.9588 1641.33 20.1493L1636.49 24.9937C1636.18 25.3007 1635.66 25.0829 1635.66 24.6492V14.4873C1635.66 14.2188 1635.44 14 1635.17 14C1634.9 14 1634.69 14.2178 1634.69 14.4873V24.6492C1634.69 25.0829 1634.16 25.2998 1633.86 24.9937L1629.02 20.1493C1628.83 19.9588 1628.52 19.9588 1628.33 20.1493C1628.14 20.3399 1628.14 20.6479 1628.33 20.8375L1633.17 25.6819C1633.47 25.9889 1633.26 26.5127 1632.82 26.5127H1622.67C1622.41 26.5127 1622.19 26.7306 1622.19 27C1622.19 27.2685 1622.4 27.4873 1622.67 27.4873H1632.82C1633.26 27.4873 1633.47 28.0121 1633.17 28.3181L1628.33 33.1625C1628.14 33.3531 1628.14 33.661 1628.33 33.8507C1628.52 34.0412 1628.83 34.0412 1629.02 33.8507L1633.86 29.0063C1634.16 28.6993 1634.69 28.9171 1634.69 29.3508V39.5127C1634.69 39.7812 1634.9 40 1635.17 40C1635.44 40 1635.66 39.7822 1635.66 39.5127V29.3508C1635.66 28.9171 1636.18 28.7002 1636.49 29.0063L1641.33 33.8507C1641.52 34.0412 1641.83 34.0412 1642.02 33.8507C1642.21 33.6601 1642.21 33.3521 1642.02 33.1625L1637.18 28.3181C1636.87 28.0111 1637.09 27.4873 1637.52 27.4873H1647.67C1647.94 27.4873 1648.16 27.2695 1648.16 27C1648.16 26.7315 1647.94 26.5127 1647.67 26.5127Z" fill="white"/>
<path opacity="0.5" d="M1392.16 67.2189H1386.31C1386.06 67.2189 1385.93 66.9161 1386.11 66.7395L1388.9 63.9447C1389.01 63.8348 1389.01 63.6571 1388.9 63.5477C1388.79 63.4377 1388.61 63.4377 1388.5 63.5477L1385.71 66.3425C1385.53 66.5196 1385.23 66.394 1385.23 66.1438V60.2811C1385.23 60.1262 1385.11 60 1384.95 60C1384.8 60 1384.67 60.1257 1384.67 60.2811V66.1438C1384.67 66.394 1384.37 66.5191 1384.19 66.3425L1381.4 63.5477C1381.29 63.4377 1381.11 63.4377 1381 63.5477C1380.89 63.6577 1380.89 63.8353 1381 63.9447L1383.8 66.7395C1383.97 66.9167 1383.85 67.2189 1383.6 67.2189H1377.74C1377.59 67.2189 1377.46 67.3446 1377.46 67.5C1377.46 67.6549 1377.59 67.7811 1377.74 67.7811H1383.6C1383.85 67.7811 1383.97 68.0839 1383.8 68.2605L1381 71.0553C1380.89 71.1652 1380.89 71.3429 1381 71.4523C1381.11 71.5623 1381.29 71.5623 1381.4 71.4523L1384.19 68.6575C1384.37 68.4804 1384.67 68.606 1384.67 68.8562V74.7189C1384.67 74.8738 1384.8 75 1384.95 75C1385.11 75 1385.23 74.8743 1385.23 74.7189V68.8562C1385.23 68.606 1385.53 68.4809 1385.71 68.6575L1388.5 71.4523C1388.61 71.5623 1388.79 71.5623 1388.9 71.4523C1389.01 71.3423 1389.01 71.1647 1388.9 71.0553L1386.11 68.2605C1385.93 68.0833 1386.06 67.7811 1386.31 67.7811H1392.16C1392.32 67.7811 1392.44 67.6555 1392.44 67.5C1392.44 67.3451 1392.32 67.2189 1392.16 67.2189Z" fill="white"/>
<path opacity="0.5" d="M1757.75 34.2189H1751.9C1751.65 34.2189 1751.52 33.9161 1751.7 33.7395L1754.49 30.9447C1754.6 30.8348 1754.6 30.6571 1754.49 30.5477C1754.38 30.4377 1754.2 30.4377 1754.09 30.5477L1751.3 33.3425C1751.13 33.5196 1750.82 33.394 1750.82 33.1438V27.2811C1750.82 27.1262 1750.7 27 1750.54 27C1750.39 27 1750.26 27.1257 1750.26 27.2811V33.1438C1750.26 33.394 1749.96 33.5191 1749.78 33.3425L1746.99 30.5477C1746.88 30.4377 1746.7 30.4377 1746.6 30.5477C1746.49 30.6577 1746.49 30.8353 1746.6 30.9447L1749.39 33.7395C1749.56 33.9167 1749.44 34.2189 1749.19 34.2189H1743.33C1743.18 34.2189 1743.05 34.3446 1743.05 34.5C1743.05 34.6549 1743.18 34.7811 1743.33 34.7811H1749.19C1749.44 34.7811 1749.56 35.0839 1749.39 35.2605L1746.6 38.0553C1746.49 38.1652 1746.49 38.3429 1746.6 38.4523C1746.71 38.5623 1746.88 38.5623 1746.99 38.4523L1749.78 35.6575C1749.96 35.4804 1750.26 35.606 1750.26 35.8562V41.7189C1750.26 41.8738 1750.39 42 1750.54 42C1750.7 42 1750.82 41.8743 1750.82 41.7189V35.8562C1750.82 35.606 1751.13 35.4809 1751.3 35.6575L1754.09 38.4523C1754.2 38.5623 1754.38 38.5623 1754.49 38.4523C1754.6 38.3423 1754.6 38.1647 1754.49 38.0553L1751.7 35.2605C1751.52 35.0833 1751.65 34.7811 1751.9 34.7811H1757.75C1757.91 34.7811 1758.04 34.6555 1758.04 34.5C1758.03 34.3451 1757.91 34.2189 1757.75 34.2189Z" fill="white"/>
<path opacity="0.5" d="M1776.93 128.913H1754.28C1753.32 128.913 1752.83 127.742 1753.52 127.06L1764.31 116.253C1764.73 115.828 1764.73 115.141 1764.31 114.718C1763.89 114.293 1763.2 114.293 1762.78 114.718L1751.98 125.524C1751.3 126.209 1750.13 125.723 1750.13 124.756V102.087C1750.13 101.488 1749.65 101 1749.04 101C1748.45 101 1747.96 101.486 1747.96 102.087V124.756C1747.96 125.723 1746.79 126.207 1746.11 125.524L1735.31 114.718C1734.89 114.293 1734.2 114.293 1733.78 114.718C1733.35 115.143 1733.35 115.83 1733.78 116.253L1744.57 127.06C1745.26 127.744 1744.77 128.913 1743.81 128.913H1721.16C1720.56 128.913 1720.08 129.399 1720.08 130C1720.08 130.599 1720.56 131.087 1721.16 131.087H1743.81C1744.77 131.087 1745.26 132.258 1744.57 132.94L1733.78 143.747C1733.35 144.172 1733.35 144.859 1733.78 145.282C1734.2 145.707 1734.89 145.707 1735.31 145.282L1746.11 134.476C1746.79 133.791 1747.96 134.277 1747.96 135.244V157.913C1747.96 158.512 1748.44 159 1749.04 159C1749.64 159 1750.13 158.514 1750.13 157.913V135.244C1750.13 134.277 1751.3 133.793 1751.98 134.476L1762.78 145.282C1763.2 145.707 1763.89 145.707 1764.31 145.282C1764.73 144.857 1764.73 144.17 1764.31 143.747L1753.52 132.94C1752.83 132.256 1753.32 131.087 1754.28 131.087H1776.93C1777.52 131.087 1778.01 130.601 1778.01 130C1778.01 129.401 1777.52 128.913 1776.93 128.913Z" fill="white"/>
<path opacity="0.5" d="M1608.55 91.8441H1594.88C1594.3 91.8441 1594.01 91.1376 1594.42 90.7256L1600.93 84.2043C1601.19 83.9478 1601.19 83.5333 1600.93 83.278C1600.68 83.0214 1600.26 83.0214 1600.01 83.278L1593.49 89.7992C1593.08 90.2125 1592.38 89.9193 1592.38 89.3354V75.6559C1592.38 75.2945 1592.08 75 1591.72 75C1591.36 75 1591.07 75.2932 1591.07 75.6559V89.3354C1591.07 89.9193 1590.36 90.2112 1589.95 89.7992L1583.43 83.278C1583.18 83.0214 1582.76 83.0214 1582.51 83.278C1582.25 83.5345 1582.25 83.9491 1582.51 84.2043L1589.02 90.7256C1589.44 91.1389 1589.14 91.8441 1588.56 91.8441H1574.9C1574.53 91.8441 1574.24 92.1373 1574.24 92.5C1574.24 92.8615 1574.53 93.1559 1574.9 93.1559H1588.56C1589.14 93.1559 1589.43 93.8624 1589.02 94.2744L1582.51 100.796C1582.25 101.052 1582.25 101.467 1582.51 101.722C1582.77 101.979 1583.18 101.979 1583.43 101.722L1589.95 95.2008C1590.36 94.7875 1591.07 95.0807 1591.07 95.6646V109.344C1591.07 109.706 1591.36 110 1591.72 110C1592.08 110 1592.38 109.707 1592.38 109.344V95.6646C1592.38 95.0807 1593.08 94.7888 1593.49 95.2008L1600.01 101.722C1600.26 101.979 1600.68 101.979 1600.93 101.722C1601.19 101.465 1601.19 101.051 1600.93 100.796L1594.42 94.2744C1594.01 93.8611 1594.3 93.1559 1594.88 93.1559H1608.55C1608.91 93.1559 1609.2 92.8627 1609.2 92.5C1609.2 92.1386 1608.91 91.8441 1608.55 91.8441Z" fill="white"/>
<path opacity="0.5" d="M1507.66 30.8441H1493.99C1493.41 30.8441 1493.12 30.1376 1493.53 29.7256L1500.04 23.2043C1500.3 22.9478 1500.3 22.5333 1500.04 22.278C1499.79 22.0214 1499.37 22.0214 1499.12 22.278L1492.61 28.7992C1492.19 29.2125 1491.49 28.9193 1491.49 28.3354V14.6559C1491.49 14.2945 1491.2 14 1490.83 14C1490.47 14 1490.18 14.2932 1490.18 14.6559V28.3354C1490.18 28.9193 1489.47 29.2112 1489.06 28.7992L1482.55 22.278C1482.29 22.0214 1481.88 22.0214 1481.62 22.278C1481.36 22.5345 1481.36 22.9491 1481.62 23.2043L1488.14 29.7256C1488.55 30.1389 1488.26 30.8441 1487.67 30.8441H1474.01C1473.65 30.8441 1473.35 31.1373 1473.35 31.5C1473.35 31.8615 1473.65 32.1559 1474.01 32.1559H1487.67C1488.26 32.1559 1488.55 32.8624 1488.14 33.2744L1481.62 39.7957C1481.36 40.0522 1481.36 40.4667 1481.62 40.722C1481.88 40.9786 1482.29 40.9786 1482.55 40.722L1489.06 34.2008C1489.47 33.7875 1490.18 34.0807 1490.18 34.6646V48.3441C1490.18 48.7055 1490.47 49 1490.83 49C1491.19 49 1491.49 48.7068 1491.49 48.3441V34.6646C1491.49 34.0807 1492.19 33.7888 1492.61 34.2008L1499.12 40.722C1499.38 40.9786 1499.79 40.9786 1500.04 40.722C1500.3 40.4655 1500.3 40.051 1500.04 39.7957L1493.53 33.2744C1493.12 32.8611 1493.41 32.1559 1493.99 32.1559H1507.66C1508.02 32.1559 1508.31 31.8627 1508.31 31.5C1508.31 31.1386 1508.02 30.8441 1507.66 30.8441Z" fill="white"/>
</g>
<defs>
<filter id="filter0_f_2337_9118" x="-174.508" y="-339" width="2425.51" height="1723.59" filterUnits="userSpaceOnUse" color-interpolation-filters="sRGB">
<feFlood flood-opacity="0" result="BackgroundImageFix"/>
<feBlend mode="normal" in="SourceGraphic" in2="BackgroundImageFix" result="shape"/>
<feGaussianBlur stdDeviation="125" result="effect1_foregroundBlur_2337_9118"/>
</filter>
<filter id="filter1_f_2337_9118" x="-398" y="-389" width="2525.51" height="1823.59" filterUnits="userSpaceOnUse" color-interpolation-filters="sRGB">
<feFlood flood-opacity="0" result="BackgroundImageFix"/>
<feBlend mode="normal" in="SourceGraphic" in2="BackgroundImageFix" result="shape"/>
<feGaussianBlur stdDeviation="150" result="effect1_foregroundBlur_2337_9118"/>
</filter>
<filter id="filter2_f_2337_9118" x="485.729" y="-133.045" width="1588.63" height="1624.18" filterUnits="userSpaceOnUse" color-interpolation-filters="sRGB">
<feFlood flood-opacity="0" result="BackgroundImageFix"/>
<feBlend mode="normal" in="SourceGraphic" in2="BackgroundImageFix" result="shape"/>
<feGaussianBlur stdDeviation="75" result="effect1_foregroundBlur_2337_9118"/>
</filter>
<clipPath id="clip0_2337_9118">
<rect width="1789" height="449" fill="white" transform="matrix(-1 0 0 1 1789 0)"/>
</clipPath>
</defs>
</svg>
