<svg width="72" height="72" viewBox="0 0 72 72" fill="none" xmlns="http://www.w3.org/2000/svg">
<g clip-path="url(#clip0_2337_9235)">
<path d="M66.9232 4.51406C69.342 4.99219 71.3951 7.07343 71.8592 9.54844C72.0561 10.575 72.0561 36.1125 71.8592 37.1391C71.3811 39.6703 69.342 41.7094 66.8107 42.1875C66.3889 42.2578 65.4889 42.3281 64.8139 42.3281H63.5623V45.7172C63.5623 48.9094 63.5482 49.1344 63.267 49.6406C62.9295 50.2312 62.1139 50.7656 61.5373 50.7656C60.8764 50.7656 60.3279 50.4422 55.5748 47.2641L50.9061 44.1562V48.7125C50.9061 51.2156 50.8357 53.5922 50.7654 54.0141C50.2873 56.5453 48.2482 58.5844 45.717 59.0625C45.2389 59.1469 40.992 59.2031 34.3967 59.2031H23.8357L17.8029 63.225C14.4701 65.4469 11.5451 67.3453 11.292 67.4437C11.0389 67.5563 10.6732 67.6406 10.4623 67.6406C9.88575 67.6406 9.07012 67.1062 8.73262 66.5156C8.45137 66.0094 8.43731 65.7844 8.43731 62.5922V59.2031H7.18575C6.51074 59.2031 5.61075 59.1328 5.18887 59.0625C2.65762 58.5844 0.618561 56.5453 0.140434 54.0141C-0.0564423 52.9875 -0.0564423 27.45 0.140434 26.4234C0.618561 23.8922 2.65762 21.8531 5.18887 21.375C5.63887 21.2906 8.95762 21.2344 13.5139 21.2344H21.0936V15.7641C21.0936 12.6422 21.1498 9.98437 21.2342 9.54844C21.7123 7.01719 23.7514 4.97812 26.2826 4.5C27.2248 4.33125 66.0092 4.33125 66.9232 4.51406ZM26.4373 8.85937C26.0717 9.04219 25.7764 9.3375 25.5936 9.70312C25.3123 10.2375 25.3123 10.5047 25.3123 23.3438C25.3123 36.1828 25.3123 36.45 25.5936 36.9844C25.7764 37.35 26.0717 37.6453 26.4373 37.8281C26.9717 38.1094 27.2389 38.1094 38.0389 38.1094C47.0951 38.1094 49.1764 38.1375 49.5561 38.3062C49.8092 38.4047 52.1154 39.8953 54.6748 41.6109L59.3436 44.7188V42.2578C59.3436 39.375 59.4842 38.8969 60.4686 38.3906C60.9607 38.1375 61.2982 38.1094 63.5623 38.1094C66.5154 38.1094 66.9936 37.9687 67.4998 36.9844C67.7811 36.45 67.7811 36.1828 67.7811 23.3438C67.7811 10.5047 67.7811 10.2375 67.4998 9.70312C67.3311 9.36562 67.0076 9.04219 66.6842 8.87344C66.1779 8.59219 65.7982 8.59219 46.5748 8.57812C27.2107 8.57812 26.9857 8.57812 26.4373 8.85937ZM5.34356 25.7344C4.97794 25.9172 4.68262 26.2125 4.49981 26.5781C4.21856 27.1125 4.21856 27.3797 4.21856 40.2188C4.21856 53.0578 4.21856 53.325 4.49981 53.8594C5.00606 54.8438 5.48418 54.9844 8.43731 54.9844C10.7014 54.9844 11.0389 55.0125 11.5311 55.2656C12.5154 55.7719 12.6561 56.25 12.6561 59.1328V61.5938L17.3248 58.4859C19.8842 56.7703 22.1904 55.2797 22.4436 55.1812C22.8232 55.0125 24.9045 54.9844 33.9607 54.9844C44.7607 54.9844 45.0279 54.9844 45.5623 54.7031C45.9279 54.5203 46.2232 54.225 46.4061 53.8594C46.6732 53.3391 46.6873 53.0437 46.6873 47.8125V42.3281H36.8576C30.7686 42.3281 26.7467 42.2719 26.2826 42.1875C23.7514 41.7094 21.7123 39.6703 21.2342 37.1391C21.1498 36.7031 21.0936 34.0453 21.0936 30.9234V25.4531H13.4998C6.15918 25.4531 5.87794 25.4672 5.34356 25.7344Z" fill="white"/>
<path d="M62.4656 17.3109C63.0703 17.6203 63.5625 18.45 63.5625 19.125C63.5625 19.8281 63.0703 20.6297 62.4375 20.9531C61.8891 21.2344 61.6359 21.2344 46.5469 21.2344C31.4578 21.2344 31.2047 21.2344 30.6562 20.9531C30.0234 20.6297 29.5312 19.8281 29.5312 19.125C29.5312 18.4219 30.0234 17.6203 30.6562 17.2969C31.2047 17.0156 31.4437 17.0156 46.575 17.0156C61.5937 17.0297 61.9594 17.0297 62.4656 17.3109Z" fill="#07E9FD"/>
<path d="M62.4656 25.7484C63.0703 26.0578 63.5625 26.8875 63.5625 27.5625C63.5625 28.2656 63.0703 29.0672 62.4375 29.3906C61.9031 29.6578 61.6219 29.6719 53.0156 29.6719C44.4094 29.6719 44.1281 29.6578 43.5938 29.3906C42.9609 29.0672 42.4688 28.2656 42.4688 27.5625C42.4688 26.8594 42.9609 26.0578 43.5938 25.7344C44.1281 25.4672 44.3953 25.4531 53.0437 25.4531C61.6219 25.4672 61.9594 25.4813 62.4656 25.7484Z" fill="#07E9FD"/>
</g>
<defs>
<clipPath id="clip0_2337_9235">
<rect width="72" height="72" fill="white" transform="matrix(-1 0 0 1 72 0)"/>
</clipPath>
</defs>
</svg>
