<svg width="28" height="28" viewBox="0 0 28 28" fill="none" xmlns="http://www.w3.org/2000/svg">
<g clip-path="url(#clip0_2386_391)">
<path d="M17.5 9.33331H17.5117" stroke="white" stroke-width="2" stroke-linecap="round" stroke-linejoin="round"/>
<path d="M12.8333 24.5H7C6.07174 24.5 5.1815 24.1313 4.52513 23.4749C3.86875 22.8185 3.5 21.9283 3.5 21V7C3.5 6.07174 3.86875 5.1815 4.52513 4.52513C5.1815 3.86875 6.07174 3.5 7 3.5H21C21.9283 3.5 22.8185 3.86875 23.4749 4.52513C24.1313 5.1815 24.5 6.07174 24.5 7V13.4167" stroke="white" stroke-width="2" stroke-linecap="round" stroke-linejoin="round"/>
<path d="M3.5 18.6666L9.33333 12.8333C10.416 11.7915 11.7507 11.7915 12.8333 12.8333L15.1667 15.1666" stroke="white" stroke-width="2" stroke-linecap="round" stroke-linejoin="round"/>
<path d="M20.7669 24.2865L18.2329 25.6141C18.1577 25.6533 18.0731 25.6707 17.9886 25.6646C17.904 25.6584 17.8229 25.6289 17.7541 25.5793C17.6854 25.5297 17.6318 25.4619 17.5993 25.3836C17.5669 25.3053 17.5568 25.2195 17.5703 25.1358L18.0544 22.323L16.0046 20.3315C15.9434 20.2723 15.9001 20.1972 15.8796 20.1146C15.8591 20.032 15.8622 19.9453 15.8886 19.8644C15.915 19.7835 15.9636 19.7116 16.0289 19.657C16.0942 19.6025 16.1735 19.5673 16.2578 19.5556L19.0904 19.145L20.3574 16.5865C20.3953 16.5103 20.4537 16.4462 20.5261 16.4013C20.5984 16.3565 20.6818 16.3328 20.7669 16.3328C20.852 16.3328 20.9355 16.3565 21.0078 16.4013C21.0801 16.4462 21.1386 16.5103 21.1764 16.5865L22.4434 19.145L25.2761 19.5556C25.3602 19.5677 25.4391 19.6031 25.5041 19.6577C25.5691 19.7124 25.6175 19.7841 25.6439 19.8649C25.6702 19.9456 25.6734 20.0321 25.6532 20.1145C25.6329 20.197 25.59 20.2721 25.5293 20.3315L23.4794 22.323L23.9624 25.1346C23.9769 25.2185 23.9676 25.3047 23.9356 25.3835C23.9035 25.4624 23.85 25.5306 23.7811 25.5805C23.7122 25.6305 23.6307 25.6601 23.5458 25.666C23.461 25.672 23.3761 25.654 23.3009 25.6141L20.7669 24.2865Z" stroke="white" stroke-width="2" stroke-linecap="round" stroke-linejoin="round"/>
</g>
<defs>
<clipPath id="clip0_2386_391">
<rect width="28" height="28" fill="white"/>
</clipPath>
</defs>
</svg>
