<svg width="16" height="16" viewBox="0 0 16 16" fill="none" xmlns="http://www.w3.org/2000/svg">
<path d="M9.98868 2L10.0707 2.004C11.4133 2.14667 12.422 2.452 13.3813 3.11933C13.4958 3.19921 13.5823 3.313 13.6287 3.44467C14.8793 6.988 15.2107 10.1027 14.596 11.6313C13.9273 12.968 12.8587 14 11.6667 14C11.1787 14 10.538 13.3547 10.1147 12.6367C10.5872 12.5507 11.0551 12.441 11.5167 12.308C11.6009 12.2839 11.6796 12.2435 11.7481 12.189C11.8167 12.1346 11.8739 12.0671 11.9165 11.9905C11.959 11.9139 11.986 11.8297 11.996 11.7427C12.006 11.6557 11.9988 11.5676 11.9747 11.4833C11.9506 11.3991 11.9102 11.3205 11.8557 11.2519C11.8012 11.1833 11.7338 11.1261 11.6572 11.0835C11.5806 11.041 11.4964 11.014 11.4094 11.004C11.3224 10.994 11.2342 11.0013 11.15 11.0253C8.93668 11.6587 7.06334 11.6587 4.85001 11.0253C4.67992 10.9767 4.49748 10.9976 4.34282 11.0835C4.18817 11.1694 4.07397 11.3132 4.02534 11.4833C3.97672 11.6534 3.99766 11.8359 4.08355 11.9905C4.16944 12.1452 4.31325 12.2594 4.48334 12.308C4.96134 12.444 5.42734 12.5547 5.88534 12.6373C5.46201 13.354 4.82134 14 4.33334 14C3.14135 14 2.07268 12.968 1.38134 11.5807C0.789345 10.1027 1.12134 6.98733 2.37134 3.44467C2.4177 3.313 2.50421 3.19921 2.61868 3.11933C3.57801 2.452 4.58668 2.14667 5.92935 2.004C6.04979 1.99115 6.17145 2.01136 6.28128 2.06245C6.3911 2.11355 6.48493 2.1936 6.55268 2.294L6.59468 2.36533L7.02868 3.222L7.12001 3.21133C7.70581 3.15133 8.29621 3.15133 8.88201 3.21133L8.97134 3.222L9.40468 2.366C9.45317 2.26986 9.52422 2.1869 9.61175 2.1242C9.69929 2.06151 9.80071 2.02095 9.90734 2.006L9.98868 2ZM6.00001 6.66667C5.68139 6.66665 5.37329 6.78074 5.13152 6.98827C4.88974 7.1958 4.73028 7.48305 4.68201 7.798L4.67001 7.90067L4.66668 8L4.67001 8.1C4.68947 8.3587 4.78397 8.6061 4.94195 8.81189C5.09992 9.01768 5.31449 9.17291 5.55937 9.25857C5.80426 9.34422 6.06881 9.35657 6.3206 9.29411C6.5724 9.23165 6.80051 9.09709 6.97697 8.90692C7.15343 8.71675 7.27058 8.47923 7.31406 8.22347C7.35754 7.96771 7.32547 7.70482 7.22176 7.46702C7.11806 7.22922 6.94724 7.02683 6.73022 6.88467C6.51321 6.74251 6.25944 6.66675 6.00001 6.66667ZM10 6.66667C9.68139 6.66665 9.37329 6.78074 9.13152 6.98827C8.88974 7.1958 8.73028 7.48305 8.68201 7.798L8.67001 7.90067L8.66668 8L8.67001 8.1C8.68947 8.3587 8.78397 8.6061 8.94195 8.81189C9.09992 9.01768 9.31449 9.17291 9.55937 9.25857C9.80426 9.34422 10.0688 9.35657 10.3206 9.29411C10.5724 9.23165 10.8005 9.09709 10.977 8.90692C11.1534 8.71675 11.2706 8.47923 11.3141 8.22347C11.3575 7.96771 11.3255 7.70482 11.2218 7.46702C11.1181 7.22922 10.9472 7.02683 10.7302 6.88467C10.5132 6.74251 10.2594 6.66675 10 6.66667Z" fill="#505050"/>
</svg>
