<svg width="28" height="28" viewBox="0 0 28 28" fill="none" xmlns="http://www.w3.org/2000/svg">
<g clip-path="url(#clip0_2386_1620)">
<path d="M8.1665 6.6115C8.1665 5.78628 8.49432 4.99486 9.07784 4.41134C9.66136 3.82782 10.4528 3.5 11.278 3.5H21.3883C21.7969 3.5 22.2016 3.58048 22.5791 3.73685C22.9566 3.89322 23.2996 4.12241 23.5885 4.41134C23.8774 4.70027 24.1066 5.04328 24.263 5.42078C24.4194 5.79829 24.4998 6.20289 24.4998 6.6115V16.7218C24.4998 17.1304 24.4194 17.5351 24.263 17.9126C24.1066 18.2901 23.8774 18.6331 23.5885 18.922C23.2996 19.2109 22.9566 19.4401 22.5791 19.5965C22.2016 19.7529 21.7969 19.8333 21.3883 19.8333H11.278C10.4528 19.8333 9.66136 19.5055 9.07784 18.922C8.49432 18.3385 8.1665 17.5471 8.1665 16.7218V6.6115Z" stroke="white" stroke-width="2" stroke-linecap="round" stroke-linejoin="round"/>
<path d="M4.68067 8.46997C4.3229 8.67393 4.02532 8.96872 3.818 9.32456C3.61069 9.68039 3.50099 10.0847 3.5 10.4965V22.1631C3.5 23.4465 4.55 24.4965 5.83333 24.4965H17.5C18.375 24.4965 18.851 24.0473 19.25 23.3298" stroke="white" stroke-width="2" stroke-linecap="round" stroke-linejoin="round"/>
<path d="M19.8335 8.16669H19.8465" stroke="white" stroke-width="2" stroke-linecap="round" stroke-linejoin="round"/>
<path d="M8.1665 15.1667L12.4178 10.9153C12.5489 10.7841 12.7046 10.68 12.876 10.609C13.0473 10.538 13.231 10.5014 13.4165 10.5014C13.602 10.5014 13.7857 10.538 13.957 10.609C14.1284 10.68 14.2841 10.7841 14.4152 10.9153L18.6665 15.1667" stroke="white" stroke-width="2" stroke-linecap="round" stroke-linejoin="round"/>
<path d="M17.5 14L19.418 12.082C19.5491 11.9508 19.7048 11.8467 19.8761 11.7757C20.0475 11.7046 20.2312 11.6681 20.4167 11.6681C20.6022 11.6681 20.7858 11.7046 20.9572 11.7757C21.1286 11.8467 21.2842 11.9508 21.4153 12.082L24.5 15.1667" stroke="white" stroke-width="2" stroke-linecap="round" stroke-linejoin="round"/>
</g>
<defs>
<clipPath id="clip0_2386_1620">
<rect width="28" height="28" fill="white"/>
</clipPath>
</defs>
</svg>
