<svg width="143" height="135" viewBox="0 0 143 135" fill="none" xmlns="http://www.w3.org/2000/svg">
<path d="M23.4718 106.561C25.322 105.874 27.3772 106.038 29.0969 107.011C38.2908 112.308 48.7021 115.075 59.2885 115.035C92.0233 115.035 118.575 89.2961 118.575 57.5176C118.575 25.7391 92.0233 0 59.2885 0C26.5538 0 3.09785e-05 25.7369 3.09785e-05 57.5176C-0.00991486 66.976 2.37518 76.2793 6.92873 84.5457C7.88531 86.2346 8.11961 88.2436 7.57695 90.1104L1.38931 110.464C1.00413 111.73 1.70817 113.07 2.96205 113.459C3.45167 113.611 3.97721 113.598 4.45964 113.424L23.4718 106.561Z" fill="#525252"/>
<path d="M30.8689 47.9314C36.1107 47.9314 40.3667 52.2269 40.3667 57.5175C40.3667 62.808 36.1107 67.1036 30.8689 67.1036C25.6271 67.1036 21.3711 62.808 21.3711 57.5175C21.3711 52.2269 25.6271 47.9314 30.8689 47.9314Z" fill="white"/>
<path d="M59.365 47.9314C64.6068 47.9314 68.8628 52.2269 68.8628 57.5175C68.8628 62.808 64.6068 67.1036 59.365 67.1036C54.1232 67.1036 49.8672 62.808 49.8672 57.5175C49.8672 52.2269 54.1232 47.9314 59.365 47.9314Z" fill="white"/>
<path d="M87.8572 47.9314C93.099 47.9314 97.355 52.2269 97.355 57.5175C97.355 62.808 93.099 67.1036 87.8572 67.1036C82.6153 67.1036 78.3594 62.808 78.3594 57.5175C78.3594 52.2269 82.6153 47.9314 87.8572 47.9314Z" fill="white"/>
<path d="M123.958 128.379C122.512 127.844 120.908 127.973 119.564 128.732C112.368 132.871 104.223 135.031 95.9408 135C70.3281 135 49.5547 114.898 49.5547 90.0779C49.5547 65.2583 70.3281 45.1541 95.9408 45.1541C121.554 45.1541 142.327 65.2491 142.327 90.0779C142.334 97.4657 140.468 104.732 136.908 111.187C136.157 112.508 135.974 114.082 136.399 115.544L141.229 131.43C141.53 132.42 140.978 133.468 139.997 133.772C139.615 133.89 139.205 133.881 138.829 133.745L123.958 128.379Z" fill="url(#paint0_linear_182_1755)"/>
<path d="M76.0403 81.7695C80.1414 81.7695 83.4712 85.1303 83.4712 89.2695C83.4712 93.4087 80.1414 96.7695 76.0403 96.7695C71.9392 96.7695 68.6094 93.4087 68.6094 89.2695C68.6094 85.1303 71.9392 81.7695 76.0403 81.7695Z" fill="white"/>
<path d="M98.3372 81.7808C102.438 81.7808 105.768 85.1415 105.768 89.2807C105.768 93.42 102.438 96.7807 98.3372 96.7807C94.236 96.7807 90.9062 93.42 90.9062 89.2807C90.9062 85.1415 94.236 81.7808 98.3372 81.7808Z" fill="white"/>
<path d="M120.626 83.4297C124.727 83.4297 128.057 86.7904 128.057 90.9297C128.057 95.0689 124.727 98.4296 120.626 98.4296C116.525 98.4296 113.195 95.0689 113.195 90.9297C113.195 86.7904 116.525 83.4297 120.626 83.4297Z" fill="white"/>
<defs>
<linearGradient id="paint0_linear_182_1755" x1="95.9409" y1="45.1541" x2="95.9409" y2="135" gradientUnits="userSpaceOnUse">
<stop stop-color="#06E8FD"/>
<stop offset="1" stop-color="#008BE4"/>
</linearGradient>
</defs>
</svg>
