<svg width="34" height="33" viewBox="0 0 34 33" fill="none" xmlns="http://www.w3.org/2000/svg">
<path d="M28.5 6.99994H4.5V16.4999H28.5V6.99994Z" fill="white" stroke="black"/>
<path d="M6.65196 0.0477486C3.76413 0.426153 1.32774 2.43767 0.398321 5.206C0.0132774 6.36777 0 6.54038 0 12.2364C0 15.569 0.0265547 17.6071 0.0730255 17.939C0.517817 21.1654 3.01396 23.7877 6.22708 24.4117L6.63868 24.4914V27.97C6.63868 31.4288 6.63868 31.462 6.78473 31.7143C6.93742 31.9864 7.34238 32.2387 7.6212 32.2387C8.0328 32.2387 8.29171 32.0064 12.016 28.2887L15.7669 24.5378H21.3832C26.0635 24.5378 27.0991 24.5246 27.5704 24.4383C30.8632 23.8673 33.3594 21.3579 33.8905 18.0983C34.0365 17.1822 34.0365 7.4366 33.8905 6.46071C33.6515 4.86079 32.9079 3.40028 31.7329 2.22523C30.684 1.17632 29.5288 0.532372 28.0152 0.153969C27.4576 0.0145569 27.3912 0.0145569 17.2606 0.00127792C11.6575 -0.00535965 6.88431 0.0145569 6.65196 0.0477486ZM9.87172 10.8754C10.27 11.0613 10.6219 11.4132 10.8277 11.8314C11.06 12.3094 11.0534 13.0861 10.8078 13.5508C10.0443 15.0047 8.01289 15.0113 7.24944 13.5575C7.01045 13.106 6.99717 12.3227 7.21625 11.8513C7.46188 11.3136 7.99297 10.8754 8.59709 10.7227C8.90911 10.6364 9.52651 10.7161 9.87172 10.8754ZM17.8381 10.8754C18.2365 11.0613 18.5883 11.4132 18.7941 11.8314C19.0265 12.3094 19.0198 13.0861 18.7742 13.5508C18.0107 15.0047 15.9793 15.0113 15.2159 13.5575C14.9769 13.106 14.9636 12.3227 15.1827 11.8513C15.4283 11.3136 15.9594 10.8754 16.5635 10.7227C16.8755 10.6364 17.4929 10.7161 17.8381 10.8754ZM25.8046 10.8754C26.2029 11.0613 26.5547 11.4132 26.7605 11.8314C26.9929 12.3094 26.9862 13.0861 26.7406 13.5508C25.9772 15.0047 23.9457 15.0113 23.1823 13.5575C22.9433 13.106 22.93 12.3227 23.1491 11.8513C23.3947 11.3136 23.9258 10.8754 24.5299 10.7227C24.8419 10.6364 25.4593 10.7161 25.8046 10.8754Z" fill="url(#paint0_linear_2153_4533)"/>
<defs>
<linearGradient id="paint0_linear_2153_4533" x1="17" y1="32.2387" x2="17" y2="7.62939e-06" gradientUnits="userSpaceOnUse">
<stop stop-color="#06E8FD"/>
<stop offset="1" stop-color="#008BE4"/>
</linearGradient>
</defs>
</svg>
