<svg width="16" height="16" viewBox="0 0 16 16" fill="none" xmlns="http://www.w3.org/2000/svg">
<path d="M8.00033 5.3335C9.76566 5.3335 11.3523 5.88416 12.4503 6.76016C12.8259 6.6285 13.2363 6.6356 13.6071 6.7802C13.978 6.92479 14.2848 7.19733 14.4721 7.54851C14.6595 7.89969 14.715 8.30632 14.6286 8.69486C14.5421 9.08339 14.3195 9.42817 14.001 9.66683C14.001 12.0602 11.3143 14.0002 8.00099 14.0002C4.75099 14.0002 2.10433 12.1335 2.00099 9.80416L1.33433 9.66683C1.01578 9.42817 0.79317 9.08339 0.706752 8.69486C0.620334 8.30632 0.675817 7.89969 0.863167 7.54851C1.05052 7.19733 1.35736 6.92479 1.7282 6.7802C2.09903 6.6356 2.50937 6.6285 2.88499 6.76016C3.98233 5.88483 5.56899 5.3335 7.33433 5.3335H8.00033Z" stroke="#505050" stroke-width="1.33333" stroke-linecap="round" stroke-linejoin="round"/>
<path d="M8 5.33333L8.66667 2L12.6667 2.66667" stroke="#505050" stroke-width="1.33333" stroke-linecap="round" stroke-linejoin="round"/>
<path d="M12 2.66667C12 2.84348 12.0702 3.01305 12.1953 3.13807C12.3203 3.2631 12.4899 3.33333 12.6667 3.33333C12.8435 3.33333 13.013 3.2631 13.1381 3.13807C13.2631 3.01305 13.3333 2.84348 13.3333 2.66667C13.3333 2.48986 13.2631 2.32029 13.1381 2.19526C13.013 2.07024 12.8435 2 12.6667 2C12.4899 2 12.3203 2.07024 12.1953 2.19526C12.0702 2.32029 12 2.48986 12 2.66667Z" stroke="#505050" stroke-width="1.33333" stroke-linecap="round" stroke-linejoin="round"/>
<path d="M6.00033 9.00016C6.18442 9.00016 6.33366 8.85092 6.33366 8.66683C6.33366 8.48273 6.18442 8.3335 6.00033 8.3335C5.81623 8.3335 5.66699 8.48273 5.66699 8.66683C5.66699 8.85092 5.81623 9.00016 6.00033 9.00016Z" fill="#505050" stroke="#505050" stroke-width="1.33333" stroke-linecap="round" stroke-linejoin="round"/>
<path d="M10.0003 9.00016C10.1844 9.00016 10.3337 8.85092 10.3337 8.66683C10.3337 8.48273 10.1844 8.3335 10.0003 8.3335C9.81623 8.3335 9.66699 8.48273 9.66699 8.66683C9.66699 8.85092 9.81623 9.00016 10.0003 9.00016Z" fill="#505050" stroke="#505050" stroke-width="1.33333" stroke-linecap="round" stroke-linejoin="round"/>
<path d="M6.66699 11.3335C7.11166 11.5555 7.55566 11.6668 8.00033 11.6668C8.44499 11.6668 8.88899 11.5555 9.33366 11.3335" stroke="#505050" stroke-width="1.33333" stroke-linecap="round" stroke-linejoin="round"/>
</svg>
