<svg width="29" height="29" viewBox="0 0 29 29" fill="none" xmlns="http://www.w3.org/2000/svg">
<g clip-path="url(#clip0_185_5507)">
<path d="M5.67956 4.87444L25.3778 14.5L5.67956 24.1256C5.56713 24.1688 5.44438 24.1777 5.32692 24.151C5.20945 24.1243 5.10256 24.0633 5.01981 23.9758C4.93464 23.8859 4.87601 23.7742 4.85042 23.6531C4.82483 23.5319 4.83327 23.4061 4.87481 23.2894L7.85698 14.5L4.87481 5.71061C4.83327 5.59397 4.82483 5.46811 4.85042 5.34697C4.87601 5.22583 4.93464 5.11414 5.01981 5.02428C5.10256 4.93673 5.20945 4.87575 5.32692 4.84908C5.44438 4.8224 5.56713 4.83123 5.67956 4.87444Z" stroke="white" stroke-width="2" stroke-linecap="round" stroke-linejoin="round"/>
<path d="M7.85156 14.5H25.3724" stroke="white" stroke-width="2" stroke-linecap="round" stroke-linejoin="round"/>
</g>
<defs>
<clipPath id="clip0_185_5507">
<rect width="29" height="29" fill="white"/>
</clipPath>
</defs>
</svg>
