<svg width="28" height="28" viewBox="0 0 28 28" fill="none" xmlns="http://www.w3.org/2000/svg">
<g clip-path="url(#clip0_2386_405)">
<path d="M20.7686 20.174C20.7686 20.174 20.8585 20.1099 21.002 20.0002C23.1521 18.3377 24.502 15.9285 24.502 13.2464C24.502 8.24602 19.8003 4.18835 14.002 4.18835C8.20362 4.18835 3.50195 8.24602 3.50195 13.2464C3.50195 18.249 8.20362 22.1667 14.002 22.1667C14.4966 22.1667 15.3086 22.134 16.438 22.0687C17.9103 23.0254 20.0593 23.8105 21.94 23.8105C22.5221 23.8105 22.7963 23.3322 22.423 22.8445C21.856 22.1492 21.0743 21.035 20.771 20.1729L20.7686 20.174Z" stroke="white" stroke-width="2" stroke-linecap="round" stroke-linejoin="round"/>
<path d="M8.75 15.75C11.6667 18.6667 16.3333 18.6667 19.25 15.75" stroke="white" stroke-width="2" stroke-linecap="round" stroke-linejoin="round"/>
</g>
<defs>
<clipPath id="clip0_2386_405">
<rect width="28" height="28" fill="white"/>
</clipPath>
</defs>
</svg>
