<svg width="72" height="72" viewBox="0 0 72 72" fill="none" xmlns="http://www.w3.org/2000/svg">
<path d="M29.7462 0.236122C27.3834 0.813156 25.3018 2.67094 24.4298 5.00723C24.1204 5.79539 24.1064 6.10502 24.0642 9.90502C24.022 14.4369 24.022 14.4791 24.9784 14.8732C25.3722 15.0421 25.5691 15.0561 25.9488 14.9295C26.8771 14.6198 26.9052 14.465 26.9896 10.2146C27.0599 6.62576 27.074 6.37242 27.3834 5.71094C28.0022 4.35983 29.254 3.38872 30.7167 3.10724C31.3074 2.99464 35.1751 2.96649 43.7264 2.99464L55.8922 3.03687L50.8993 4.71168C48.1567 5.6265 45.5407 6.56946 45.1047 6.80872C44.0498 7.34354 43.1216 8.35687 42.559 9.55317L42.1089 10.4961L42.0386 35.2665L41.9683 60.0369H36.3425C31.2511 60.0369 30.6464 60.0088 29.9713 59.7836C28.9867 59.4317 27.8334 58.3621 27.3974 57.4051C27.074 56.6873 27.0599 56.4762 26.9896 52.8591C26.9052 48.6087 26.8771 48.4539 25.9488 48.1443C25.5691 48.0176 25.3722 48.0317 24.9784 48.2006C24.022 48.5947 24.022 48.6369 24.0642 53.1688C24.1064 56.9688 24.1204 57.2784 24.4298 58.0665C25.0768 59.7836 26.3989 61.3176 27.9882 62.148C29.6337 63.0065 30.0697 63.0628 36.3847 63.0628H42.0386V65.1036C42.0386 66.7925 42.0949 67.2991 42.3199 67.9465C42.7278 69.1288 43.4873 70.1702 44.4296 70.8599C45.611 71.7325 46.4689 71.9999 48.016 71.9999L49.2818 71.9858L58.8457 68.7769C64.1059 67.0177 68.6909 65.4132 69.0425 65.2021C70.3646 64.4421 71.4897 62.8939 71.8413 61.3599C72.0523 60.4451 72.0523 5.76723 71.8413 4.76797C71.3772 2.61464 69.6191 0.785011 67.4391 0.207977C66.3562 -0.0875854 30.9558 -0.059433 29.7462 0.236122ZM68.072 3.95168C68.5221 4.40205 68.7612 4.78205 68.8737 5.2465C69.0003 5.73909 69.0425 12.7339 69.0425 33.0569C69.0425 56.5606 69.0144 60.2902 68.8315 60.8954C68.6206 61.6132 68.0017 62.3873 67.3688 62.6969C67.1719 62.7954 62.8541 64.2591 57.7909 65.9621C47.5238 69.3821 47.6504 69.354 46.4408 68.608C45.9626 68.3125 45.6673 67.9888 45.386 67.4399L44.9922 66.6939V39.1369C44.9922 18.9265 45.0344 11.4672 45.1469 11.1154C45.386 10.4117 45.9204 9.7502 46.5111 9.45465C47.3128 9.06057 65.2451 3.12131 65.8077 3.07909C66.7078 2.99464 67.3829 3.26205 68.072 3.95168Z" fill="white"/>
<path d="M18.973 18.124C18.2839 18.3773 17.8479 19.2921 18.0588 20.024C18.1151 20.1929 20.3232 22.5151 22.9533 25.161L27.7493 29.9884H14.5708C0.126581 29.9884 0.646968 29.9603 0.210968 30.8188C-0.0703226 31.3536 -0.0703226 31.7195 0.210968 32.2544C0.646968 33.1129 0.126581 33.0847 14.5708 33.0847H27.7493L22.9533 37.8981C20.3232 40.5581 18.1151 42.8803 18.0588 43.0492C17.665 44.3721 19.1137 45.5121 20.267 44.7944C21.0968 44.2736 32.8688 32.3529 32.9672 31.9166C33.0235 31.7055 33.0235 31.3677 32.9672 31.1425C32.911 30.8892 30.8857 28.764 26.9476 24.7951C23.6847 21.5158 20.7592 18.6588 20.4639 18.4336C19.9435 18.0536 19.4512 17.941 18.973 18.124Z" fill="#07E9FD"/>
</svg>
