<svg width="56" height="24" viewBox="0 0 56 24" fill="none" xmlns="http://www.w3.org/2000/svg">
<path d="M22.5107 12.8144L19.7276 20.3302L19.4294 18.801C18.7337 16.9278 17.2274 14.9628 15.4766 14.16L18.0303 23.8166H21.0503L25.5384 12.7991H22.5107V12.8144Z" fill="#505050"/>
<path d="M24.9023 23.8396L26.6838 12.7991H29.5357L27.7542 23.8396H24.9023Z" fill="#505050"/>
<path d="M38.091 13.0742C37.5252 12.8525 36.6383 12.6078 35.5373 12.6078C32.716 12.6078 30.7357 14.1064 30.7204 16.2472C30.7051 17.8375 32.1349 18.7168 33.2129 19.2443C34.3292 19.7872 34.6962 20.1312 34.6962 20.6129C34.6886 21.3546 33.8093 21.691 32.9912 21.691C31.852 21.691 31.248 21.5228 30.3075 21.1175L29.9406 20.9417L29.543 23.4113C30.2082 23.7171 31.4391 23.9847 32.7236 24C35.7131 24 37.6628 22.5167 37.6857 20.2306C37.701 18.9691 36.9364 18.021 35.2926 17.2335C34.2986 16.7212 33.687 16.3848 33.6946 15.8649C33.6946 15.4061 34.2069 14.9168 35.3308 14.9168C36.2636 14.9015 36.9364 15.1156 37.464 15.345L37.7163 15.475L38.091 13.0742Z" fill="#505050"/>
<path d="M45.4052 12.8145H43.2033C42.5228 12.8145 42.0105 13.0056 41.7047 13.7319L37.4766 23.8473H40.4661C40.4661 23.8473 40.9554 22.4864 41.0701 22.1882C41.3988 22.1882 44.3042 22.1958 44.7171 22.1958C44.8089 22.5781 45.0612 23.8473 45.0612 23.8473H47.7143L45.4052 12.8145ZM41.8882 19.925C42.1252 19.2904 43.0198 16.8361 43.0198 16.8361C43.0045 16.8667 43.2568 16.2015 43.402 15.781L43.5932 16.7291C43.5932 16.7291 44.1437 19.3669 44.2584 19.9174C43.8149 19.925 42.4463 19.925 41.8882 19.925Z" fill="#505050"/>
<path d="M17.1335 12.8066H12.5384L12.5078 12.9978C16.0784 13.9153 18.4409 16.1555 19.4196 18.8086L18.4256 13.7318C18.2574 13.036 17.7528 12.8296 17.1335 12.8066Z" fill="#505050"/>
<path d="M3.91464 10.1382H2.10259L0 0.687976L2.01084 0.351562L3.44825 7.74503L7.10293 0.450957H9.02967L3.91464 10.1382Z" fill="#505050"/>
<path d="M13.3742 7.04944H9.03901C8.91668 8.36452 9.52834 8.93795 10.5682 8.93795C11.4321 8.93795 12.1967 8.61683 13.0148 8.09691L13.0072 9.41199C12.2044 9.91661 11.2716 10.2377 10.1782 10.2377C8.28972 10.2377 7.04346 9.15968 7.4181 6.72832C7.75452 4.53398 9.27603 3.20361 11.0346 3.20361C13.0607 3.20361 13.7335 4.72512 13.443 6.64422C13.4277 6.78184 13.3818 6.95005 13.3742 7.04944ZM10.8205 4.36577C10.1476 4.36577 9.52069 4.89333 9.23015 6.00197H11.9138C11.9597 4.9545 11.6309 4.36577 10.8205 4.36577Z" fill="#505050"/>
<path d="M16.1927 6.2239L15.5963 10.0927H13.9219L14.9617 3.34144H16.3915V4.69474C16.9572 3.91487 17.7295 3.25733 18.7922 3.19617L18.7999 4.86295C17.7295 4.93941 16.7814 5.49755 16.1927 6.2239Z" fill="#505050"/>
<path d="M18.7734 10.0927L19.8133 3.34152H21.4877L20.4555 10.0927H18.7734ZM20.8378 2.20994C20.2797 2.20994 19.8897 1.82001 19.9815 1.26186C20.0732 0.68843 20.5778 0.283203 21.136 0.283203C21.6788 0.283203 22.0688 0.68843 21.977 1.26186C21.8929 1.82001 21.3883 2.20994 20.8378 2.20994Z" fill="#505050"/>
<path d="M26.1311 1.4988C25.5576 1.4988 25.2136 1.75111 25.1218 2.35513L24.9689 3.34908H26.2534V4.71767H24.7548L23.9291 10.0927H22.2623L23.088 4.71003H22.1094L22.3235 3.34143H23.3021L23.478 2.17927C23.7073 0.6807 24.7472 0.122559 26.1311 0.122559C26.4216 0.122559 26.6433 0.153141 26.8115 0.176079L26.8268 1.54467C26.6586 1.52938 26.4139 1.4988 26.1311 1.4988Z" fill="#505050"/>
<path d="M26.1484 10.0927L27.1883 3.34152H28.8627L27.8305 10.0927H26.1484ZM28.2204 2.20994C27.6623 2.20994 27.2724 1.82001 27.3565 1.26186C27.4482 0.68843 27.9528 0.283203 28.511 0.283203C29.0538 0.283203 29.4438 0.68843 29.352 1.26186C29.2679 1.82001 28.7633 2.20994 28.2204 2.20994Z" fill="#505050"/>
<path d="M35.3781 7.04944H31.0429C30.9282 8.36452 31.5322 8.93795 32.5721 8.93795C33.436 8.93795 34.2006 8.61683 35.0187 8.09691L35.0111 9.41199C34.2083 9.91661 33.2755 10.2377 32.1821 10.2377C30.2936 10.2377 29.0474 9.15968 29.422 6.72832C29.7584 4.53398 31.2799 3.20361 33.0385 3.20361C35.0646 3.20361 35.7374 4.72512 35.4469 6.64422C35.4316 6.78184 35.3857 6.95005 35.3781 7.04944ZM32.8244 4.36577C32.1516 4.36577 31.5246 4.89333 31.2341 6.00197H33.9177C33.9636 4.9545 33.6348 4.36577 32.8244 4.36577Z" fill="#505050"/>
<path d="M40.3389 10.0924L40.3465 9.152C39.7807 9.72544 39.0467 10.2301 38.1139 10.2301C36.6995 10.2301 35.7285 9.18258 36.0802 6.90414C36.4701 4.38868 38.0222 3.27239 39.5896 3.27239C40.2318 3.27239 40.7364 3.38708 41.1187 3.52471L41.6234 0.267602L43.3437 0L41.7916 10.0924H40.3389ZM40.9047 4.90859C40.5147 4.7098 40.2089 4.61805 39.6355 4.61805C38.7562 4.61805 37.9993 5.32911 37.7775 6.81239C37.5787 8.12747 38.0375 8.73913 38.7791 8.73913C39.3908 8.73913 39.926 8.37213 40.4612 7.81399L40.9047 4.90859Z" fill="#505050"/>
<path d="M46.9242 10.1613C46.1291 10.1613 45.4792 10.0313 44.8828 9.82488L45.9838 2.65314L47.2836 2.45435L46.8096 5.55853C47.1918 5.22212 47.7194 4.87806 48.3616 4.87806C49.4397 4.87806 50.166 5.68086 49.8984 7.40117C49.6079 9.28203 48.4457 10.1613 46.9242 10.1613ZM47.8647 5.99434C47.4441 5.99434 47.016 6.27724 46.6413 6.65953L46.282 8.9762C46.5343 9.06795 46.7025 9.11382 47.0619 9.11382C47.8647 9.11382 48.4305 8.62449 48.6063 7.46233C48.7592 6.48367 48.4305 5.99434 47.8647 5.99434Z" fill="#505050"/>
<path d="M52.8933 10.3751C52.2434 11.6367 51.6011 12.0266 50.6148 12.0266C50.3931 12.0266 50.2708 12.0037 50.1561 11.9731L50.1484 10.9256C50.309 10.9715 50.4849 11.0021 50.7295 11.0021C51.0965 11.0021 51.4253 10.8339 51.6394 10.4592L51.8076 10.1228L50.7295 5.08422L52.0828 4.91602L52.7098 8.55541L54.3995 4.98483H55.661L52.8933 10.3751Z" fill="#505050"/>
</svg>
