<svg width="26" height="26" viewBox="0 0 26 26" fill="none" xmlns="http://www.w3.org/2000/svg">
<g clip-path="url(#clip0_2386_411)">
<path d="M13.7109 0.0914063C13.457 0.218359 13.3047 0.472266 13.3047 0.756641C13.3098 1.12227 13.7211 2.56445 13.8684 2.72695C14.0156 2.8793 14.2645 2.99609 14.4574 2.99609C14.818 2.99609 15.1836 2.63047 15.1836 2.275C15.1836 1.9957 14.7824 0.528125 14.6555 0.335156C14.5285 0.152344 14.2543 0 14.041 0C13.9598 0 13.8074 0.0406251 13.7109 0.0914063Z" fill="black"/>
<path d="M18.0423 1.55391C17.9255 1.61485 17.4989 2.14297 16.5544 3.40235L15.229 5.17461L14.8888 5.02735C14.7009 4.9461 13.8173 4.57032 12.9235 4.18946C12.0298 3.80352 11.2071 3.47852 11.0903 3.46836C10.8263 3.43282 10.552 3.55977 10.3946 3.77813C10.161 4.10313 10.2016 4.24532 11.1106 6.35782C11.5626 7.41407 11.9485 8.30782 11.9638 8.34336C11.979 8.39414 11.4052 8.85118 10.2169 9.73985C8.62235 10.9332 8.43446 11.0906 8.35829 11.2836C8.29735 11.4258 8.28211 11.5578 8.30243 11.6898C8.34305 11.9082 8.57665 12.2129 8.7493 12.2688C8.81024 12.2891 9.83094 12.4211 11.0192 12.5633L13.1774 12.8223L13.4364 14.9805C13.5786 16.1688 13.7106 17.1895 13.7309 17.2504C13.7868 17.423 14.0915 17.6566 14.3098 17.6973C14.4419 17.7176 14.5739 17.7023 14.7161 17.6414C14.9091 17.5652 15.0665 17.3773 16.2598 15.7828C17.1485 14.5945 17.6056 14.0207 17.6563 14.0359C17.6919 14.0512 18.5856 14.432 19.6368 14.884C20.6931 15.3359 21.6376 15.7168 21.7391 15.727C22.1251 15.7828 22.4856 15.473 22.5364 15.0566C22.5567 14.8586 22.4755 14.6453 21.7595 12.9645C21.3177 11.9387 20.9266 11.0246 20.8911 10.9332L20.8251 10.7758L22.5923 9.44532C24.4407 8.06407 24.527 7.98282 24.527 7.62227C24.527 7.36836 24.3493 7.07383 24.1309 6.96211C23.9888 6.89102 23.4251 6.80977 21.8407 6.62188C20.6829 6.48477 19.713 6.34766 19.6825 6.31719C19.652 6.28672 19.5149 5.3168 19.3778 4.15899C19.1899 2.57969 19.1087 2.01094 19.0325 1.86875C18.8649 1.52852 18.3977 1.38125 18.0423 1.55391Z" fill="black"/>
<path d="M22.4148 2.53398C22.3082 2.61523 21.973 2.925 21.6785 3.22969C21.0641 3.85937 20.9625 4.05742 21.0691 4.41289C21.1402 4.65664 21.4144 4.91055 21.6582 4.95625C21.9984 5.01719 22.2219 4.88008 22.9176 4.16914C23.2883 3.79336 23.5726 3.46328 23.593 3.38203C23.6437 3.17383 23.5879 2.82344 23.4812 2.67617C23.2476 2.35625 22.7449 2.29023 22.4148 2.53398Z" fill="black"/>
<path d="M7.32729 6.50507C7.11909 6.56601 6.87026 6.8707 6.82964 7.10937C6.78901 7.34804 6.92104 7.68827 7.10893 7.82031C7.31714 7.97265 8.91675 8.39413 9.15542 8.36367C9.39917 8.32812 9.57183 8.2164 9.69878 8.0082C9.88667 7.70351 9.79018 7.21601 9.50073 7.01288C9.37378 6.92148 7.71831 6.44413 7.56089 6.45429C7.52026 6.45429 7.4187 6.47968 7.32729 6.50507Z" fill="black"/>
<path d="M23.3594 10.9281C23.1664 11.0652 23.0039 11.3395 23.0039 11.5426C23.0039 11.7355 23.1207 11.9844 23.273 12.1316C23.4305 12.2738 24.9133 12.6953 25.2586 12.6953C26.0051 12.6953 26.2641 11.6949 25.6141 11.3141C25.4059 11.1922 23.9891 10.8164 23.7352 10.8164C23.6031 10.8164 23.466 10.857 23.3594 10.9281Z" fill="black"/>
<path d="M4.96629 18.8753C-0.279413 24.1312 -0.0559753 23.8824 0.0252747 24.314C0.0506654 24.4663 0.187775 24.6339 0.751447 25.2027C1.49793 25.9542 1.6452 26.0456 2.0159 25.9796C2.18856 25.9441 2.70145 25.4515 7.12449 21.0335L12.035 16.123L11.9233 15.1581L11.8065 14.1933L11.1464 14.1121C10.7858 14.0663 10.3491 14.0156 10.1815 13.9953L9.87684 13.9648L4.96629 18.8753Z" fill="black"/>
<path d="M17.9918 16.3008C17.7836 16.4277 17.6719 16.6004 17.6363 16.8441C17.6059 17.0828 18.0274 18.6824 18.1797 18.8906C18.2356 18.9668 18.3777 19.0684 18.4945 19.1141C18.7941 19.2359 19.0481 19.1801 19.2918 18.9516C19.5914 18.6621 19.5965 18.5301 19.3172 17.5094C19.1902 17.0269 19.0481 16.5851 19.0074 16.5191C18.8043 16.2144 18.3117 16.1027 17.9918 16.3008Z" fill="black"/>
</g>
<defs>
<clipPath id="clip0_2386_411">
<rect width="26" height="26" fill="white"/>
</clipPath>
</defs>
</svg>
