<svg width="20" height="20" viewBox="0 0 20 20" fill="none" xmlns="http://www.w3.org/2000/svg">
<g clip-path="url(#clip0_183_5491)">
<path d="M8.01562 0.0429692C7.83984 0.0937505 7.59375 0.355469 7.54297 0.535157C7.51953 0.617188 7.5 0.878907 7.5 1.12109V1.55469L6.98047 1.57031C6.49219 1.58203 6.44922 1.58984 6.30078 1.6875C6.05469 1.84766 5.95703 2.03906 5.95703 2.34766C5.95703 2.55859 5.97656 2.62891 6.0625 2.76172C6.12109 2.84766 6.23438 2.96094 6.31641 3.01172C6.44922 3.09375 6.51953 3.10547 6.98047 3.11719L7.49219 3.13281L7.50781 3.64453C7.51953 4.10547 7.53125 4.17578 7.61328 4.30859C7.66406 4.39063 7.77734 4.50391 7.86328 4.5625C7.99609 4.65234 8.06641 4.66797 8.28125 4.66797C8.49609 4.66797 8.56641 4.65234 8.69922 4.5625C8.78516 4.50391 8.89844 4.39063 8.94922 4.30859C9.03125 4.17578 9.04297 4.10547 9.05469 3.64453L9.07031 3.13281L9.58203 3.11719C10.043 3.10547 10.1133 3.09375 10.2461 3.01172C10.3281 2.96094 10.4414 2.84766 10.5 2.76172C10.5859 2.62891 10.6055 2.55859 10.6055 2.34766C10.6055 2.03906 10.5078 1.84766 10.2617 1.6875C10.1133 1.58984 10.0703 1.58203 9.58594 1.57031L9.07031 1.55469L9.05469 1.04297C9.04297 0.582032 9.03125 0.511719 8.94922 0.378907C8.76562 0.0820317 8.35938 -0.0624995 8.01562 0.0429692Z" fill="black"/>
<path d="M12.703 0.0428435C12.5155 0.097531 12.2773 0.355343 12.2226 0.554562C12.1327 0.902218 12.2694 1.2655 12.5663 1.44909C12.789 1.58972 13.1679 1.58191 13.3866 1.43737C13.6288 1.27722 13.7304 1.08581 13.7304 0.781125C13.7304 0.480343 13.6288 0.285031 13.3984 0.132687C13.2304 0.019406 12.9101 -0.0196565 12.703 0.0428435Z" fill="black"/>
<path d="M17.3906 0.0429692C17.2148 0.0937505 16.9688 0.355469 16.918 0.535157C16.8945 0.617188 16.875 0.878907 16.875 1.12109V1.55469L16.3555 1.57031C15.8672 1.58203 15.8242 1.58984 15.6758 1.6875C15.4297 1.84766 15.332 2.03906 15.332 2.34766C15.332 2.55859 15.3516 2.62891 15.4375 2.76172C15.4961 2.84766 15.6094 2.96094 15.6914 3.01172C15.8242 3.09375 15.8945 3.10547 16.3555 3.11719L16.8672 3.13281L16.8828 3.64453C16.8945 4.10547 16.9062 4.17578 16.9883 4.30859C17.0391 4.39063 17.1523 4.50391 17.2383 4.5625C17.3711 4.65234 17.4414 4.66797 17.6562 4.66797C17.8711 4.66797 17.9414 4.65234 18.0742 4.5625C18.1602 4.50391 18.2734 4.39063 18.3242 4.30859C18.4062 4.17578 18.418 4.10547 18.4297 3.64453L18.4453 3.13281L18.957 3.11719C19.418 3.10547 19.4883 3.09375 19.6211 3.01172C19.7031 2.96094 19.8164 2.84766 19.875 2.76172C19.9609 2.62891 19.9805 2.55859 19.9805 2.34766C19.9805 2.03906 19.8828 1.84766 19.6367 1.6875C19.4883 1.58984 19.4453 1.58203 18.9609 1.57031L18.4453 1.55469L18.4297 1.04297C18.418 0.582032 18.4062 0.511719 18.3242 0.378907C18.1406 0.0820317 17.7344 -0.0624995 17.3906 0.0429692Z" fill="black"/>
<path d="M12.461 4.74995C12.3203 4.7773 12.0742 4.86714 11.9141 4.94527C11.6289 5.08198 11.4805 5.23042 6.04689 10.6562C1.71095 14.9882 0.445327 16.2734 0.335952 16.4609C-0.480454 17.8359 0.304702 19.6132 1.87502 19.9453C2.42189 20.0625 3.0508 19.957 3.53908 19.664C3.72658 19.5546 5.01173 18.289 9.34377 13.9531C14.7735 8.51949 14.918 8.37105 15.0547 8.08589C15.5117 7.14448 15.3438 6.11714 14.6133 5.38667C14.0313 4.80464 13.2578 4.57808 12.461 4.74995ZM13.3985 6.38277C13.6797 6.57027 13.8047 6.91011 13.711 7.25777C13.6641 7.42964 13.3477 7.75777 8.26564 12.8437C5.3008 15.8164 2.80861 18.2851 2.73439 18.332C2.62892 18.3984 2.53908 18.4179 2.34377 18.4179C2.03908 18.4179 1.84767 18.3164 1.68752 18.0742C1.54689 17.8632 1.53517 17.4726 1.66798 17.2656C1.71486 17.1914 4.18361 14.6992 7.15627 11.7304C11.3867 7.50386 12.5899 6.32417 12.6953 6.29292C12.9102 6.23042 13.2305 6.26948 13.3985 6.38277Z" fill="black"/>
<path d="M17.3906 9.41797C17.2148 9.46875 16.9688 9.73047 16.918 9.91016C16.8945 9.99219 16.875 10.2539 16.875 10.4961V10.9297L16.3555 10.9453C15.8672 10.957 15.8242 10.9648 15.6758 11.0625C15.4297 11.2227 15.332 11.4141 15.332 11.7227C15.332 11.9336 15.3516 12.0039 15.4375 12.1367C15.4961 12.2227 15.6094 12.3359 15.6914 12.3867C15.8242 12.4688 15.8945 12.4805 16.3555 12.4922L16.8672 12.5078L16.8828 13.0195C16.8945 13.4805 16.9062 13.5508 16.9883 13.6836C17.0391 13.7656 17.1523 13.8789 17.2383 13.9375C17.3711 14.0273 17.4414 14.043 17.6562 14.043C17.8711 14.043 17.9414 14.0273 18.0742 13.9375C18.1602 13.8789 18.2734 13.7656 18.3242 13.6836C18.4062 13.5508 18.418 13.4805 18.4297 13.0195L18.4453 12.5078L18.957 12.4922C19.418 12.4805 19.4883 12.4688 19.6211 12.3867C19.7031 12.3359 19.8164 12.2227 19.875 12.1367C19.9609 12.0039 19.9805 11.9336 19.9805 11.7227C19.9805 11.4141 19.8828 11.2227 19.6367 11.0625C19.4883 10.9648 19.4453 10.957 18.9609 10.9453L18.4453 10.9297L18.4297 10.418C18.418 9.95703 18.4062 9.88672 18.3242 9.75391C18.1406 9.45703 17.7344 9.3125 17.3906 9.41797Z" fill="black"/>
<path d="M12.703 12.5428C12.5155 12.5975 12.2773 12.8553 12.2226 13.0546C12.1327 13.4022 12.2694 13.7655 12.5663 13.9491C12.789 14.0897 13.1679 14.0819 13.3866 13.9374C13.6288 13.7772 13.7304 13.5858 13.7304 13.2811C13.7304 12.9803 13.6288 12.785 13.3984 12.6327C13.2304 12.5194 12.9101 12.4803 12.703 12.5428Z" fill="black"/>
</g>
<defs>
<clipPath id="clip0_183_5491">
<rect width="20" height="20" fill="white"/>
</clipPath>
</defs>
</svg>
