<svg width="72" height="72" viewBox="0 0 72 72" fill="none" xmlns="http://www.w3.org/2000/svg">
<path d="M28.8657 0.12381C28.232 0.306772 27.3449 1.24973 27.1618 1.89714C27.0773 2.19269 27.0069 3.13566 27.0069 4.00825V5.57046L25.1339 5.62676C23.3736 5.66898 23.2187 5.69713 22.6836 6.04898C21.7964 6.62602 21.4443 7.31565 21.4443 8.4275C21.4443 9.18749 21.5147 9.44083 21.8246 9.91934C22.0358 10.229 22.4442 10.6371 22.7399 10.8201C23.2187 11.1156 23.4722 11.1579 25.1339 11.2001L26.9787 11.2564L27.035 13.1001C27.0773 14.7608 27.1195 15.0141 27.4153 15.4927C27.5983 15.7882 28.0067 16.1964 28.3165 16.4075C28.7953 16.7312 29.0488 16.7875 29.8233 16.7875C30.5979 16.7875 30.8514 16.7312 31.3302 16.4075C31.64 16.1964 32.0484 15.7882 32.2314 15.4927C32.5272 15.0141 32.5694 14.7608 32.6117 13.1001L32.668 11.2564L34.5128 11.2001C36.1745 11.1579 36.428 11.1156 36.9068 10.8201C37.2025 10.6371 37.6109 10.229 37.8221 9.91934C38.132 9.44083 38.2024 9.18749 38.2024 8.4275C38.2024 7.31565 37.8503 6.62602 36.9631 6.04898C36.428 5.69713 36.2731 5.66898 34.5269 5.62676L32.668 5.57046L32.6117 3.72676C32.5694 2.06603 32.5272 1.8127 32.2314 1.33418C31.5696 0.264551 30.105 -0.256189 28.8657 0.12381Z" fill="#07E9FD"/>
<path d="M45.764 0.123903C45.0881 0.32094 44.229 1.24983 44.0319 1.9676C43.708 3.22019 44.2009 4.52908 45.2711 5.19056C46.0738 5.69722 47.4398 5.66908 48.2284 5.14834C49.1015 4.5713 49.4677 3.88167 49.4677 2.7839C49.4677 1.7002 49.1015 0.996494 48.2707 0.447606C47.6651 0.0394588 46.5104 -0.101282 45.764 0.123903Z" fill="white"/>
<path d="M62.6636 0.12381C62.0299 0.306772 61.1427 1.24973 60.9596 1.89714C60.8751 2.19269 60.8047 3.13566 60.8047 4.00825V5.57046L58.9318 5.62676C57.1715 5.66898 57.0166 5.69713 56.4814 6.04898C55.5942 6.62602 55.2422 7.31565 55.2422 8.4275C55.2422 9.18749 55.3126 9.44083 55.6224 9.91934C55.8336 10.229 56.242 10.6371 56.5378 10.8201C57.0166 11.1156 57.27 11.1579 58.9318 11.2001L60.7766 11.2564L60.8329 13.1001C60.8751 14.7608 60.9174 15.0141 61.2131 15.4927C61.3962 15.7882 61.8046 16.1964 62.1144 16.4075C62.5932 16.7312 62.8467 16.7875 63.6212 16.7875C64.3957 16.7875 64.6492 16.7312 65.128 16.4075C65.4378 16.1964 65.8462 15.7882 66.0293 15.4927C66.325 15.0141 66.3673 14.7608 66.4095 13.1001L66.4658 11.2564L68.3106 11.2001C69.9724 11.1579 70.2258 11.1156 70.7046 10.8201C71.0004 10.6371 71.4088 10.229 71.62 9.91934C71.9298 9.44083 72.0002 9.18749 72.0002 8.4275C72.0002 7.31565 71.6482 6.62602 70.761 6.04898C70.2258 5.69713 70.0709 5.66898 68.3247 5.62676L66.4658 5.57046L66.4095 3.72676C66.3673 2.06603 66.325 1.8127 66.0293 1.33418C65.3674 0.264551 63.9028 -0.256189 62.6636 0.12381Z" fill="#07E9FD"/>
<path d="M44.8912 17.0829C44.3842 17.1814 43.497 17.5051 42.9196 17.7866C41.8916 18.2792 41.3565 18.814 21.7679 38.3629C6.13645 53.971 1.57376 58.6013 1.17945 59.2769C-1.76376 64.231 1.06679 70.6347 6.72791 71.831C8.69944 72.2532 10.9667 71.8732 12.727 70.8176C13.403 70.4235 18.0361 65.8636 33.6534 50.2414C53.2279 30.6644 53.749 30.1296 54.2419 29.1021C55.8895 25.7103 55.2839 22.0088 52.6505 19.377C50.5523 17.28 47.764 16.4637 44.8912 17.0829ZM48.2709 22.9659C49.2849 23.6414 49.7355 24.8659 49.3975 26.1185C49.2285 26.7377 48.0879 27.9199 29.7667 46.2443C19.0782 56.9547 10.0936 65.8495 9.82603 66.0184C9.44581 66.2576 9.12191 66.328 8.4178 66.328C7.31937 66.328 6.62933 65.9621 6.05196 65.0895C5.54499 64.3295 5.50274 62.9221 5.98154 62.1762C6.15053 61.9087 15.0506 52.9295 25.7673 42.2332C41.0185 27.0051 45.3559 22.7548 45.7361 22.6422C46.5106 22.417 47.6654 22.5577 48.2709 22.9659Z" fill="white"/>
<path d="M62.6636 33.9015C62.0299 34.0845 61.1427 35.0274 60.9596 35.6748C60.8751 35.9704 60.8047 36.9134 60.8047 37.786V39.3482L58.9318 39.4045C57.1715 39.4467 57.0166 39.4748 56.4814 39.8267C55.5942 40.4037 55.2422 41.0934 55.2422 42.2052C55.2422 42.9652 55.3126 43.2185 55.6224 43.6971C55.8336 44.0067 56.242 44.4148 56.5378 44.5978C57.0166 44.8933 57.27 44.9356 58.9318 44.9778L60.7766 45.0341L60.8329 46.8778C60.8751 48.5385 60.9174 48.7919 61.2131 49.2704C61.3962 49.5659 61.8046 49.9741 62.1144 50.1852C62.5932 50.5089 62.8467 50.5652 63.6212 50.5652C64.3957 50.5652 64.6492 50.5089 65.128 50.1852C65.4378 49.9741 65.8462 49.5659 66.0293 49.2704C66.325 48.7919 66.3673 48.5385 66.4095 46.8778L66.4658 45.0341L68.3106 44.9778C69.9724 44.9356 70.2258 44.8933 70.7046 44.5978C71.0004 44.4148 71.4088 44.0067 71.62 43.6971C71.9298 43.2185 72.0002 42.9652 72.0002 42.2052C72.0002 41.0934 71.6482 40.4037 70.761 39.8267C70.2258 39.4748 70.0709 39.4467 68.3247 39.4045L66.4658 39.3482L66.4095 37.5045C66.3673 35.8437 66.325 35.5904 66.0293 35.1119C65.3674 34.0423 63.9028 33.5215 62.6636 33.9015Z" fill="#07E9FD"/>
<path d="M45.764 45.1608C45.0881 45.3578 44.229 46.2867 44.0319 47.0045C43.708 48.2571 44.2009 49.5659 45.2711 50.2274C46.0738 50.7341 47.4398 50.7059 48.2284 50.1852C49.1015 49.6082 49.4677 48.9185 49.4677 47.8208C49.4677 46.7371 49.1015 46.0334 48.2707 45.4845C47.6651 45.0763 46.5104 44.9356 45.764 45.1608Z" fill="white"/>
</svg>
